HIERARCHY
ROOT mixamorig:Hips
{
	OFFSET 0.000000 85.230415 0.000000
	CHANNELS 6 Xposition Yposition Zposition Zrotation Yrotation Xrotation 
	JOINT mixamorig:Spine
	{
		OFFSET -0.000014 7.868595 1.166200
		CHANNELS 3 Zrotation Yrotation Xrotation
		JOINT mixamorig:Spine1
		{
			OFFSET 0.000000 8.307600 0.241180
			CHANNELS 3 Zrotation Yrotation Xrotation
			JOINT mixamorig:Spine2
			{
				OFFSET 0.000000 7.469998 -0.455969
				CHANNELS 3 Zrotation Yrotation Xrotation
				JOINT mixamorig:Neck
				{
					OFFSET 0.000000 21.623920 -3.130763
					CHANNELS 3 Zrotation Yrotation Xrotation
					JOINT mixamorig:Head
					{
						OFFSET 0.000000 8.979096 1.007916
						CHANNELS 3 Zrotation Yrotation Xrotation
						JOINT mixamorig:HeadTop_End
						{
							OFFSET 0.000000 36.978806 0.701265
							CHANNELS 3 Zrotation Yrotation Xrotation
							End Site
							{
								OFFSET 0.000000 0.000000 0.000000
							}
						}
						JOINT mixamorig:HairB
						{
							OFFSET -6.414200 28.771164 21.708258
							CHANNELS 3 Zrotation Yrotation Xrotation
							End Site
							{
								OFFSET 0.000000 0.000000 0.000000
							}
						}
						JOINT mixamorig:HairA
						{
							OFFSET -11.484100 27.496475 17.498951
							CHANNELS 3 Zrotation Yrotation Xrotation
							End Site
							{
								OFFSET 0.000000 0.000000 0.000000
							}
						}
						JOINT mixamorig:Bow_Left
						{
							OFFSET -6.807600 33.586777 20.752766
							CHANNELS 3 Zrotation Yrotation Xrotation
							End Site
							{
								OFFSET 0.000000 0.000000 0.000000
							}
						}
						JOINT mixamorig:Bow_Right
						{
							OFFSET -11.133100 30.313980 19.500957
							CHANNELS 3 Zrotation Yrotation Xrotation
							End Site
							{
								OFFSET 0.000000 0.000000 0.000000
							}
						}
						JOINT mixamorig:HairC
						{
							OFFSET 2.525900 31.959274 20.608562
							CHANNELS 3 Zrotation Yrotation Xrotation
							JOINT mixamorig:HairC1
							{
								OFFSET 1.733735 -3.232010 3.632423
								CHANNELS 3 Zrotation Yrotation Xrotation
								End Site
								{
									OFFSET 0.000000 0.000000 0.000000
								}
							}
						}
						JOINT mixamorig:Ponytail
						{
							OFFSET -0.181100 31.348724 -13.427048
							CHANNELS 3 Zrotation Yrotation Xrotation
							JOINT mixamorig:Ponytail1
							{
								OFFSET -0.746532 2.567368 -7.327436
								CHANNELS 3 Zrotation Yrotation Xrotation
								JOINT mixamorig:Ponytail2
								{
									OFFSET -0.357839 -10.803711 -7.221615
									CHANNELS 3 Zrotation Yrotation Xrotation
									End Site
									{
										OFFSET 0.000000 0.000000 0.000000
									}
								}
							}
						}
					}
				}
				JOINT mixamorig:LeftShoulder
				{
					OFFSET 4.215800 16.566912 -4.092373
					CHANNELS 3 Zrotation Yrotation Xrotation
					JOINT mixamorig:LeftArm
					{
						OFFSET 8.521194 -0.267406 -1.717659
						CHANNELS 3 Zrotation Yrotation Xrotation
						JOINT mixamorig:LeftForeArm
						{
							OFFSET 21.262897 0.000002 -0.000001
							CHANNELS 3 Zrotation Yrotation Xrotation
							JOINT mixamorig:LeftHand
							{
								OFFSET 21.154701 -0.000003 -0.000001
								CHANNELS 3 Zrotation Yrotation Xrotation
								JOINT mixamorig:LeftHandThumb1
								{
									OFFSET 4.109039 -1.962593 2.610258
									CHANNELS 3 Zrotation Yrotation Xrotation
									JOINT mixamorig:LeftHandThumb2
									{
										OFFSET 3.101486 -1.790642 1.790644
										CHANNELS 3 Zrotation Yrotation Xrotation
										JOINT mixamorig:LeftHandThumb3
										{
											OFFSET 3.038742 -1.754417 1.754420
											CHANNELS 3 Zrotation Yrotation Xrotation
											JOINT mixamorig:LeftHandThumb4
											{
												OFFSET 2.539978 -1.466461 1.466458
												CHANNELS 3 Zrotation Yrotation Xrotation
												End Site
												{
													OFFSET 0.000000 0.000000 0.000000
												}
											}
										}
									}
								}
								JOINT mixamorig:LeftHandIndex1
								{
									OFFSET 11.845871 -0.683540 3.729384
									CHANNELS 3 Zrotation Yrotation Xrotation
									JOINT mixamorig:LeftHandIndex2
									{
										OFFSET 3.283096 0.000000 -0.000000
										CHANNELS 3 Zrotation Yrotation Xrotation
										JOINT mixamorig:LeftHandIndex3
										{
											OFFSET 3.323807 0.000000 -0.000000
											CHANNELS 3 Zrotation Yrotation Xrotation
											JOINT mixamorig:LeftHandIndex4
											{
												OFFSET 3.020599 0.000000 -0.000000
												CHANNELS 3 Zrotation Yrotation Xrotation
												End Site
												{
													OFFSET 0.000000 0.000000 0.000000
												}
											}
										}
									}
								}
								JOINT mixamorig:LeftHandMiddle1
								{
									OFFSET 12.082413 0.000000 -0.000000
									CHANNELS 3 Zrotation Yrotation Xrotation
									JOINT mixamorig:LeftHandMiddle2
									{
										OFFSET 3.410500 0.000000 0.000000
										CHANNELS 3 Zrotation Yrotation Xrotation
										JOINT mixamorig:LeftHandMiddle3
										{
											OFFSET 3.312202 0.000000 0.000000
											CHANNELS 3 Zrotation Yrotation Xrotation
											JOINT mixamorig:LeftHandMiddle4
											{
												OFFSET 3.438499 0.000000 0.000000
												CHANNELS 3 Zrotation Yrotation Xrotation
												End Site
												{
													OFFSET 0.000000 0.000000 0.000000
												}
											}
										}
									}
								}
								JOINT mixamorig:LeftHandRing1
								{
									OFFSET 12.470573 0.087585 -2.973213
									CHANNELS 3 Zrotation Yrotation Xrotation
									JOINT mixamorig:LeftHandRing2
									{
										OFFSET 3.053307 0.000000 0.000000
										CHANNELS 3 Zrotation Yrotation Xrotation
										JOINT mixamorig:LeftHandRing3
										{
											OFFSET 3.295898 0.000000 0.000000
											CHANNELS 3 Zrotation Yrotation Xrotation
											JOINT mixamorig:LeftHandRing4
											{
												OFFSET 3.727997 0.000000 0.000000
												CHANNELS 3 Zrotation Yrotation Xrotation
												End Site
												{
													OFFSET 0.000000 0.000000 0.000000
												}
											}
										}
									}
								}
								JOINT mixamorig:LeftHandPinky1
								{
									OFFSET 11.691048 -0.779549 -5.760270
									CHANNELS 3 Zrotation Yrotation Xrotation
									JOINT mixamorig:LeftHandPinky2
									{
										OFFSET 2.861702 0.000000 0.000000
										CHANNELS 3 Zrotation Yrotation Xrotation
										JOINT mixamorig:LeftHandPinky3
										{
											OFFSET 2.863403 0.000000 0.000000
											CHANNELS 3 Zrotation Yrotation Xrotation
											JOINT mixamorig:LeftHandPinky4
											{
												OFFSET 2.545403 0.000000 0.000000
												CHANNELS 3 Zrotation Yrotation Xrotation
												End Site
												{
													OFFSET 0.000000 0.000000 0.000000
												}
											}
										}
									}
								}
							}
							JOINT mixamorig:LeftWristTwist
							{
								OFFSET 10.565701 0.000000 -0.000000
								CHANNELS 3 Zrotation Yrotation Xrotation
								End Site
								{
									OFFSET 0.000000 0.000000 0.000000
								}
							}
						}
						JOINT mixamorig:LeftUpArmTwist
						{
							OFFSET 10.646198 0.000000 -0.000000
							CHANNELS 3 Zrotation Yrotation Xrotation
							End Site
							{
								OFFSET 0.000000 0.000000 0.000000
							}
						}
					}
				}
				JOINT mixamorig:Right_Breast
				{
					OFFSET -2.562200 12.208893 5.100423
					CHANNELS 3 Zrotation Yrotation Xrotation
					End Site
					{
						OFFSET 0.000000 0.000000 0.000000
					}
				}
				JOINT mixamorig:Left_Breast
				{
					OFFSET 2.562200 12.208893 5.100423
					CHANNELS 3 Zrotation Yrotation Xrotation
					End Site
					{
						OFFSET 0.000000 0.000000 0.000000
					}
				}
				JOINT mixamorig:RightShoulder
				{
					OFFSET -4.215800 16.567416 -4.092373
					CHANNELS 3 Zrotation Yrotation Xrotation
					JOINT mixamorig:RightArm
					{
						OFFSET -8.521288 -0.267902 -1.717664
						CHANNELS 3 Zrotation Yrotation Xrotation
						JOINT mixamorig:RightForeArm
						{
							OFFSET -21.262793 -0.000002 0.000001
							CHANNELS 3 Zrotation Yrotation Xrotation
							JOINT mixamorig:RightHand
							{
								OFFSET -21.154800 0.000000 -0.000001
								CHANNELS 3 Zrotation Yrotation Xrotation
								JOINT mixamorig:RightHandThumb1
								{
									OFFSET -4.108955 -1.962654 2.610195
									CHANNELS 3 Zrotation Yrotation Xrotation
									JOINT mixamorig:RightHandThumb2
									{
										OFFSET -3.101406 -1.790596 1.790599
										CHANNELS 3 Zrotation Yrotation Xrotation
										JOINT mixamorig:RightHandThumb3
										{
											OFFSET -3.038822 -1.754463 1.754464
											CHANNELS 3 Zrotation Yrotation Xrotation
											JOINT mixamorig:RightHandThumb4
											{
												OFFSET -2.539749 -1.466324 1.466325
												CHANNELS 3 Zrotation Yrotation Xrotation
												End Site
												{
													OFFSET 0.000000 0.000000 0.000000
												}
											}
										}
									}
								}
								JOINT mixamorig:RightHandIndex1
								{
									OFFSET -11.845840 -0.684052 3.729363
									CHANNELS 3 Zrotation Yrotation Xrotation
									JOINT mixamorig:RightHandIndex2
									{
										OFFSET -3.283096 0.000000 -0.000000
										CHANNELS 3 Zrotation Yrotation Xrotation
										JOINT mixamorig:RightHandIndex3
										{
											OFFSET -3.323807 0.000000 -0.000000
											CHANNELS 3 Zrotation Yrotation Xrotation
											JOINT mixamorig:RightHandIndex4
											{
												OFFSET -3.020599 0.000000 0.000000
												CHANNELS 3 Zrotation Yrotation Xrotation
												End Site
												{
													OFFSET 0.000000 0.000000 0.000000
												}
											}
										}
									}
								}
								JOINT mixamorig:RightHandMiddle1
								{
									OFFSET -12.082314 0.000000 0.000000
									CHANNELS 3 Zrotation Yrotation Xrotation
									JOINT mixamorig:RightHandMiddle2
									{
										OFFSET -3.410606 0.000000 0.000000
										CHANNELS 3 Zrotation Yrotation Xrotation
										JOINT mixamorig:RightHandMiddle3
										{
											OFFSET -3.312195 0.000000 0.000000
											CHANNELS 3 Zrotation Yrotation Xrotation
											JOINT mixamorig:RightHandMiddle4
											{
												OFFSET -3.438499 0.000000 0.000000
												CHANNELS 3 Zrotation Yrotation Xrotation
												End Site
												{
													OFFSET 0.000000 0.000000 0.000000
												}
											}
										}
									}
								}
								JOINT mixamorig:RightHandRing1
								{
									OFFSET -12.470573 0.087166 -2.973210
									CHANNELS 3 Zrotation Yrotation Xrotation
									JOINT mixamorig:RightHandRing2
									{
										OFFSET -3.053299 0.000000 0.000000
										CHANNELS 3 Zrotation Yrotation Xrotation
										JOINT mixamorig:RightHandRing3
										{
											OFFSET -3.295898 0.000000 0.000000
											CHANNELS 3 Zrotation Yrotation Xrotation
											JOINT mixamorig:RightHandRing4
											{
												OFFSET -3.727997 0.000000 0.000000
												CHANNELS 3 Zrotation Yrotation Xrotation
												End Site
												{
													OFFSET 0.000000 0.000000 0.000000
												}
											}
										}
									}
								}
								JOINT mixamorig:RightHandPinky1
								{
									OFFSET -11.691017 -0.779953 -5.760294
									CHANNELS 3 Zrotation Yrotation Xrotation
									JOINT mixamorig:RightHandPinky2
									{
										OFFSET -2.861603 0.000000 0.000000
										CHANNELS 3 Zrotation Yrotation Xrotation
										JOINT mixamorig:RightHandPinky3
										{
											OFFSET -2.863403 0.000000 0.000000
											CHANNELS 3 Zrotation Yrotation Xrotation
											JOINT mixamorig:RightHandPinky4
											{
												OFFSET -2.545303 0.000000 0.000000
												CHANNELS 3 Zrotation Yrotation Xrotation
												End Site
												{
													OFFSET 0.000000 0.000000 0.000000
												}
											}
										}
									}
								}
							}
							JOINT mixamorig:RightWristTwist
							{
								OFFSET -10.565701 0.000000 0.000000
								CHANNELS 3 Zrotation Yrotation Xrotation
								End Site
								{
									OFFSET 0.000000 0.000000 0.000000
								}
							}
						}
						JOINT mixamorig:RightUpArmTwist
						{
							OFFSET -10.646093 0.000000 0.000001
							CHANNELS 3 Zrotation Yrotation Xrotation
							End Site
							{
								OFFSET 0.000000 0.000000 0.000000
							}
						}
					}
				}
			}
		}
		JOINT mixamorig:Belly
		{
			OFFSET 0.000000 -0.538567 3.357786
			CHANNELS 3 Zrotation Yrotation Xrotation
			End Site
			{
				OFFSET 0.000000 0.000000 0.000000
			}
		}
	}
	JOINT mixamorig:LeftUpLeg
	{
		OFFSET 8.267015 -7.995487 -0.379100
		CHANNELS 3 Zrotation Yrotation Xrotation
		JOINT mixamorig:LeftLeg
		{
			OFFSET -0.000034 -32.369440 0.062314
			CHANNELS 3 Zrotation Yrotation Xrotation
			JOINT mixamorig:LeftFoot
			{
				OFFSET 0.000024 -35.030462 -2.208349
				CHANNELS 3 Zrotation Yrotation Xrotation
				JOINT mixamorig:LeftToeBase
				{
					OFFSET 1.232905 -9.835773 10.854839
					CHANNELS 3 Zrotation Yrotation Xrotation
					JOINT mixamorig:LeftToe_End
					{
						OFFSET 0.210410 0.001970 7.008142
						CHANNELS 3 Zrotation Yrotation Xrotation
						End Site
						{
							OFFSET 0.000000 0.000000 0.000000
						}
					}
				}
			}
		}
	}
	JOINT mixamorig:RightUpLeg
	{
		OFFSET -8.266986 -7.995517 -0.379100
		CHANNELS 3 Zrotation Yrotation Xrotation
		JOINT mixamorig:RightLeg
		{
			OFFSET 0.000002 -32.369437 0.062314
			CHANNELS 3 Zrotation Yrotation Xrotation
			JOINT mixamorig:RightFoot
			{
				OFFSET 0.000001 -35.030467 -2.208349
				CHANNELS 3 Zrotation Yrotation Xrotation
				JOINT mixamorig:RightToeBase
				{
					OFFSET -1.232895 -9.835700 10.854908
					CHANNELS 3 Zrotation Yrotation Xrotation
					JOINT mixamorig:RightToe_End
					{
						OFFSET -0.214257 0.001952 7.007725
						CHANNELS 3 Zrotation Yrotation Xrotation
						End Site
						{
							OFFSET 0.000000 0.000000 0.000000
						}
					}
				}
			}
		}
	}
	JOINT mixamorig:SkirtA
	{
		OFFSET 11.243096 1.931320 -10.868500
		CHANNELS 3 Zrotation Yrotation Xrotation
		JOINT mixamorig:SkirtA1
		{
			OFFSET 2.094878 -7.760521 -3.754759
			CHANNELS 3 Zrotation Yrotation Xrotation
			End Site
			{
				OFFSET 0.000000 0.000000 0.000000
			}
		}
	}
	JOINT mixamorig:SkirtB
	{
		OFFSET -0.000008 4.335800 -15.692000
		CHANNELS 3 Zrotation Yrotation Xrotation
		JOINT mixamorig:SkirtB1
		{
			OFFSET 0.000000 -9.729668 -3.399943
			CHANNELS 3 Zrotation Yrotation Xrotation
			End Site
			{
				OFFSET 0.000000 0.000000 0.000000
			}
		}
	}
	JOINT mixamorig:SkirtC
	{
		OFFSET -11.243104 1.931381 -10.868500
		CHANNELS 3 Zrotation Yrotation Xrotation
		JOINT mixamorig:SkirtC1
		{
			OFFSET -1.996108 -7.801628 -3.723248
			CHANNELS 3 Zrotation Yrotation Xrotation
			End Site
			{
				OFFSET 0.000000 0.000000 0.000000
			}
		}
	}
}
MOTION
Frames: 4
Frame Time: 0.016667
-37.807301 81.152534 -73.624969 -2.241968 41.522884 -5.198561 9.385059 6.651009 14.963933 2.236274 2.364864 3.008153 11.730596 27.283005 2.868761 0.223796 -2.703110 3.793765 11.513024 -30.997599 -19.663556 0.000000 0.000000 0.000000 0.000002 0.000001 0.000000 0.000000 -0.000003 -0.000002 0.000008 -0.000004 -0.000003 -0.000003 0.000002 0.000001 -0.000002 -0.000003 -0.000003 -0.000000 -0.000002 0.000001 -0.000001 -0.000001 -0.000001 -0.000001 -0.000002 -0.000001 -0.000001 -0.000001 0.000006 -18.854582 -7.143437 3.082631 -64.750546 -4.349412 -4.914857 -0.092367 -25.266961 -0.061620 2.249394 2.889172 4.081205 6.429199 4.893275 4.893868 9.924170 6.672672 16.419783 13.822144 -6.150893 -16.451065 0.000001 -0.000001 -0.000000 -32.867429 -0.338079 -0.687594 -27.043576 2.667660 -0.641622 -8.143222 0.831605 -0.059208 0.000003 -0.000002 -0.000000 -47.332711 4.313199 -3.573855 -26.944102 2.658594 -0.637011 -19.640289 1.972713 -0.341488 -0.000001 -0.000000 -0.000001 -55.140014 7.575100 -4.401790 -35.418766 3.398823 -1.085595 -29.413574 2.881125 -0.756365 0.000000 -0.000001 0.000000 -62.657363 4.144573 -5.387356 -32.998693 3.194419 -0.946416 -36.508505 3.488891 -1.151069 -0.000002 -0.000002 0.000000 0.000003 -0.000002 0.000003 0.000000 0.000000 -0.000001 0.000001 -0.000002 0.000001 0.000001 -0.000002 0.000001 22.312167 20.072886 6.730288 37.401220 19.463422 -3.839329 0.265956 20.842780 -0.032163 -7.422339 19.552157 -1.437833 1.659149 -1.630433 -1.242640 -12.036057 -19.343882 19.701834 -12.720677 -9.168268 -12.858124 0.000002 0.000006 0.000003 34.080086 -0.956650 0.001044 53.463210 -3.744838 -1.886556 33.921837 -2.602927 -0.793967 0.000000 0.000000 0.000002 43.761076 -2.228696 -2.833231 54.312175 -3.785411 -1.942296 41.855447 -3.111293 -1.190067 0.000000 -0.000001 0.000000 49.099179 -1.431409 -3.295809 38.502227 -2.903210 -1.014094 51.324035 -3.638959 -1.748781 -0.000001 0.000001 -0.000001 43.077652 -1.147046 -3.525962 52.113223 -3.678614 -1.799156 40.836878 -3.049199 -1.135339 -0.000001 -0.000001 0.000002 -0.000001 0.000000 0.000000 0.000000 0.000000 -0.000001 0.000000 -0.000002 -0.000001 3.796406 5.884289 -36.126012 7.306334 5.519335 50.011065 -6.058464 9.802114 -10.171646 -0.000007 -0.000006 -4.657158 0.000000 0.000001 0.000000 0.894492 -10.359507 -24.677695 0.193373 -11.580347 23.822760 -5.768005 -6.399795 3.885446 0.000001 -0.000003 -2.170568 0.000000 0.000000 0.000000 0.000000 -0.000003 -0.000005 0.000000 0.000004 0.000001 0.000002 -0.000001 -0.000002 0.000001 -0.000002 -0.000002 0.000000 -0.000005 0.000000 0.000001 0.000002 0.000002 
-38.302254 81.070419 -74.535843 -2.329768 41.315196 -5.364672 9.559740 6.921345 14.879799 2.264465 2.442614 2.994331 11.877497 27.664720 2.903926 0.304404 -2.716619 3.758325 11.936928 -31.192897 -19.672737 0.000000 0.000000 0.000001 -0.000003 0.000000 0.000001 -0.000002 -0.000001 0.000000 0.000004 -0.000003 -0.000003 -0.000005 0.000002 0.000005 -0.000001 0.000000 0.000001 0.000002 -0.000001 0.000004 -0.000001 0.000000 0.000003 0.000001 0.000001 0.000001 0.000000 0.000000 0.000003 -18.910041 -7.119433 3.133506 -64.846890 -2.111439 -7.918570 -0.105197 -22.408227 -0.030316 2.971293 6.388536 1.077686 6.429202 4.893278 4.893874 9.924170 6.672673 16.419782 13.806212 -5.050434 -16.002422 -0.000001 0.000006 -0.000001 -34.226944 -0.182879 -0.692448 -28.202812 2.772650 -0.696654 -9.051076 0.923599 -0.073091 -0.000001 -0.000002 0.000000 -48.867059 4.388265 -3.733731 -28.310533 2.782364 -0.701860 -20.798131 2.083916 -0.382470 -0.000001 -0.000002 0.000000 -56.806141 7.599129 -4.582389 -36.949896 3.524991 -1.178063 -30.779298 3.001882 -0.826445 0.000000 -0.000001 -0.000001 -64.388369 4.178443 -5.568074 -34.649966 3.334529 -1.040459 -38.038584 3.613166 -1.245836 0.000002 -0.000000 0.000001 0.000000 0.000001 0.000002 -0.000001 -0.000000 -0.000001 0.000000 0.000002 0.000000 0.000000 0.000002 0.000000 22.262502 20.186303 6.768811 36.764386 20.823694 -3.686582 0.207362 22.027256 -0.075087 -7.009985 19.976456 -1.396077 1.044236 -1.750229 -1.172663 -12.036058 -19.343876 19.701837 -12.711284 -8.109365 -13.271166 0.000000 -0.000001 0.000000 32.471678 -0.835558 0.015932 51.849537 -3.665416 -1.782263 32.311740 -2.493290 -0.722387 -0.000000 -0.000001 0.000004 41.977927 -2.146607 -2.681564 52.694616 -3.707397 -1.836593 40.497390 -3.028275 -1.117340 -0.000001 0.000000 0.000003 47.170295 -1.350517 -3.126412 36.708599 -2.787766 -0.925058 49.712079 -3.555763 -1.647618 0.000001 0.000000 -0.000005 40.942404 -1.069542 -3.402522 50.221224 -3.582348 -1.679346 39.051122 -2.937964 -1.042058 -0.000001 -0.000000 -0.000002 0.000000 -0.000001 0.000000 -0.000001 0.000001 0.000001 0.000001 0.000000 -0.000001 4.563188 6.141779 -34.676535 7.269600 5.288667 50.680499 -5.907459 10.060643 -10.465933 -0.000007 0.000007 -4.650841 0.000000 -0.000002 0.000000 0.945873 -10.320379 -24.738222 0.466210 -11.617063 22.463308 -6.190358 -6.237194 5.390474 0.000000 0.000000 -2.176593 0.000000 0.000000 0.000000 -0.000003 -0.000003 -0.000004 -0.000001 0.000001 -0.000000 0.000001 -0.000001 -0.000002 0.000000 -0.000004 -0.000002 -0.000000 -0.000003 0.000001 -0.000002 -0.000004 0.000000 
-38.816826 80.996147 -75.478439 -2.407509 41.215726 -5.409319 9.649589 7.088439 14.745390 2.290294 2.487208 2.963459 11.914906 27.761657 2.894487 0.386123 -2.718722 3.699406 12.495319 -31.225927 -19.792787 0.000000 0.000000 -0.000002 -0.000000 0.000001 -0.000002 0.000000 -0.000003 -0.000005 0.000005 -0.000004 -0.000001 -0.000000 -0.000003 0.000001 -0.000002 -0.000001 -0.000002 0.000001 -0.000002 0.000002 -0.000001 -0.000002 -0.000001 -0.000002 0.000001 0.000001 0.000001 0.000000 -0.000001 -18.749402 -7.279920 3.171139 -64.883558 0.440543 -10.337625 -0.108800 -21.678455 -0.010947 2.854809 11.490902 -1.341102 6.429195 4.893273 4.893867 9.924171 6.672678 16.419783 13.799511 -3.935004 -15.551514 0.000001 -0.000000 0.000002 -35.673428 -0.021064 -0.699824 -29.470832 2.886201 -0.759243 -10.088942 1.028449 -0.090780 0.000002 0.000001 0.000003 -50.467146 4.461967 -3.902035 -29.764137 2.912284 -0.774082 -22.064516 2.204533 -0.429855 0.000000 -0.000001 0.000000 -58.516292 7.618365 -4.768864 -38.546739 3.653879 -1.278038 -32.232165 3.128456 -0.904138 -0.000000 -0.000002 0.000002 -66.141358 4.206835 -5.751501 -36.345260 3.475480 -1.141151 -39.634297 3.740022 -1.348175 -0.000001 -0.000002 0.000001 0.000001 0.000000 -0.000001 -0.000000 0.000001 -0.000002 0.000000 0.000002 0.000000 0.000000 0.000002 0.000000 22.258422 20.072525 6.758275 36.072908 22.374028 -3.341026 0.143336 23.210723 -0.102370 -6.303800 20.339510 -1.269727 0.391259 -1.878308 -1.092731 -12.036058 -19.343880 19.701836 -12.709445 -6.987983 -13.711482 0.000004 0.000002 -0.000001 30.766623 -0.703306 0.029348 50.138797 -3.578071 -1.674190 30.604749 -2.374892 -0.649891 0.000000 0.000000 -0.000002 40.136889 -2.056944 -2.526985 50.979733 -3.621405 -1.726992 39.003440 -2.934969 -1.039627 0.000000 0.000000 -0.000004 45.221882 -1.263026 -2.957090 34.856761 -2.665655 -0.836950 48.003133 -3.464526 -1.542990 0.000000 0.000000 0.000003 38.829299 -0.986229 -3.283224 48.310091 -3.481151 -1.561580 37.207428 -2.820137 -0.949460 0.000000 0.000000 0.000000 -0.000001 0.000001 0.000001 -0.000001 -0.000000 -0.000001 0.000000 0.000003 0.000000 5.265956 6.364558 -33.179992 7.269906 5.195719 50.888338 -5.725301 10.169486 -10.591544 -0.000001 0.000001 -4.720752 0.000000 -0.000001 0.000000 0.985300 -10.235272 -24.622575 0.799671 -11.657031 20.511496 -6.653233 -6.165636 7.108357 0.000002 0.000002 -2.181486 0.000000 0.000001 0.000000 0.000000 -0.000003 -0.000001 0.000001 -0.000001 0.000001 -0.000001 -0.000002 0.000000 0.000000 -0.000002 0.000000 0.000002 -0.000003 -0.000000 0.000001 -0.000003 -0.000003 
-39.355286 80.932159 -76.466797 -2.462673 41.221517 -5.405420 9.622124 7.106714 14.569728 2.311089 2.483898 2.922849 11.904619 27.718235 2.866470 0.467588 -2.715486 3.653815 13.095283 -31.056599 -19.987136 -0.000001 0.000000 0.000000 0.000002 0.000000 -0.000002 -0.000001 -0.000003 -0.000002 0.000004 -0.000003 -0.000005 0.000000 0.000002 0.000003 -0.000002 -0.000001 0.000000 -0.000002 -0.000000 -0.000002 -0.000001 -0.000001 -0.000001 0.000004 0.000001 -0.000001 -0.000000 -0.000001 0.000006 -18.421490 -7.584676 3.215422 -64.745159 3.413076 -11.855859 -0.118546 -21.614441 0.013087 1.483739 16.220474 -3.049425 6.429201 4.893272 4.893869 9.924165 6.672675 16.419777 13.802275 -2.811543 -15.100862 -0.000003 0.000001 0.000003 -37.196135 0.145496 -0.709938 -30.836825 3.006947 -0.829474 -11.246009 1.144912 -0.112729 -0.000003 0.000003 -0.000000 -52.122128 4.533244 -4.077691 -31.294154 3.046970 -0.853608 -23.428691 2.333259 -0.483867 0.000000 -0.000004 0.000000 -60.259530 7.632271 -4.959922 -40.198402 3.784171 -1.385188 -33.761417 3.259478 -0.989347 -0.000002 -0.000000 -0.000001 -67.905395 4.229446 -5.936280 -38.073664 3.616001 -1.248060 -41.284846 3.868141 -1.457689 -0.000001 -0.000002 -0.000001 -0.000002 0.000000 0.000001 0.000000 0.000002 0.000001 -0.000001 0.000000 0.000002 -0.000001 0.000000 0.000002 22.310139 19.748589 6.686111 35.369021 24.106011 -2.799658 0.106891 24.396587 -0.115656 -5.294707 20.654505 -1.040548 -0.292479 -2.013251 -1.002823 -12.036056 -19.343877 19.701835 -12.716441 -5.817224 -14.174767 -0.000003 -0.000002 0.000001 28.984375 -0.560916 0.040668 48.350496 -3.483327 -1.564049 28.820338 -2.248849 -0.577908 0.000002 0.000000 0.000000 38.257385 -1.960283 -2.371399 49.187085 -3.528084 -1.615202 37.393131 -2.832155 -0.958608 0.000000 0.000000 -0.000003 43.273871 -1.169819 -2.789739 32.966226 -2.538100 -0.751125 46.216728 -3.365847 -1.436566 0.000000 0.000000 -0.000001 36.760135 -0.898401 -3.169311 46.399404 -3.376092 -1.447297 35.325232 -2.696801 -0.858848 0.000000 0.000000 0.000001 0.000000 0.000000 0.000000 0.000002 0.000001 0.000000 0.000001 -0.000006 -0.000000 5.898213 6.569489 -31.610561 7.351572 5.260973 50.713997 -5.415299 10.093942 -10.619699 -0.000002 -0.000008 -4.999214 0.000000 -0.000003 0.000000 0.959908 -10.135662 -24.374096 1.242980 -11.685695 18.130702 -7.175740 -6.188971 9.111683 0.000002 0.000004 -2.185141 0.000000 0.000000 0.000000 -0.000001 -0.000000 -0.000003 0.000001 0.000001 0.000003 0.000000 0.000000 0.000000 -0.000000 -0.000003 0.000002 0.000002 0.000002 0.000000 0.000000 0.000000 0.000000 
